<svg width="40" height="40" viewBox="0 0 40 40" fill="none" xmlns="http://www.w3.org/2000/svg">
<path d="M8.19377 5.62489C8.02214 5.46558 7.79711 5.37628 7.56295 5.37454C7.32879 5.3728 7.10246 5.45875 6.92848 5.61549C6.75451 5.77222 6.64549 5.98839 6.62287 6.22146C6.60025 6.45453 6.66567 6.68762 6.80627 6.87489L10.0688 10.4686C4.24377 13.8905 1.75158 19.3749 1.64377 19.6202C1.59035 19.7402 1.56274 19.8701 1.56274 20.0014C1.56274 20.1328 1.59035 20.2627 1.64377 20.3827C1.69689 20.503 2.99689 23.3858 5.90002 26.2889C8.59377 28.9796 13.2219 32.1874 20 32.1874C22.8332 32.2046 25.6361 31.6048 28.2141 30.4296L31.8078 34.3811C31.9752 34.5651 32.2089 34.6751 32.4574 34.6868C32.7059 34.6985 32.9488 34.6111 33.1328 34.4436C33.3168 34.2762 33.4268 34.0426 33.4385 33.7941C33.4502 33.5456 33.3627 33.3026 33.1953 33.1186L8.19377 5.62489ZM15.7906 16.7686L22.8219 24.5061C21.7662 25.1658 20.5125 25.4338 19.2794 25.2633C18.0463 25.0929 16.9122 24.4949 16.0751 23.5736C15.2379 22.6524 14.7508 21.4664 14.6989 20.2227C14.6469 18.979 15.0333 17.7565 15.7906 16.7686ZM20 30.3124C15.0969 30.3124 10.8156 28.528 7.27345 25.0108C5.78822 23.5354 4.53165 21.8465 3.54533 19.9999C4.21564 18.7186 6.68595 14.503 11.3578 11.8889L14.5141 15.3593C13.3904 16.6909 12.7886 18.3853 12.8207 20.1274C12.8529 21.8695 13.5168 23.5406 14.6889 24.8298C15.861 26.119 17.4615 26.9386 19.1926 27.136C20.9238 27.3334 22.6677 26.8952 24.1 25.903L26.8828 28.9655C24.7011 29.8683 22.3611 30.3262 20 30.3124ZM21 14.7811C20.7557 14.7345 20.54 14.5928 20.4002 14.3871C20.2604 14.1814 20.2081 13.9286 20.2547 13.6843C20.3013 13.44 20.4431 13.2242 20.6488 13.0844C20.8545 12.9447 21.1073 12.8923 21.3516 12.9389C22.8782 13.2355 24.2681 14.0175 25.3141 15.1682C26.3601 16.319 27.0063 17.777 27.1563 19.3249C27.1677 19.4475 27.1548 19.5711 27.1184 19.6888C27.082 19.8064 27.0228 19.9157 26.9442 20.0105C26.8655 20.1052 26.769 20.1835 26.6601 20.241C26.5512 20.2984 26.432 20.3338 26.3094 20.3452H26.2219C25.9874 20.3462 25.7611 20.2593 25.5876 20.1017C25.4141 19.944 25.3059 19.7271 25.2844 19.4936C25.173 18.3515 24.6958 17.2759 23.9238 16.4268C23.1519 15.5777 22.1264 15.0005 21 14.7811ZM38.3563 20.3827C38.2922 20.5264 36.736 23.9764 33.2219 27.1202C33.1307 27.2056 33.0234 27.272 32.9063 27.3154C32.7891 27.3587 32.6645 27.3782 32.5396 27.3728C32.4148 27.3673 32.2924 27.3369 32.1795 27.2834C32.0666 27.2299 31.9655 27.1544 31.8822 27.0613C31.7989 26.9682 31.735 26.8594 31.6943 26.7413C31.6537 26.6232 31.637 26.4981 31.6454 26.3734C31.6538 26.2488 31.6869 26.1271 31.743 26.0154C31.7991 25.9038 31.8769 25.8045 31.9719 25.7233C33.7883 24.0914 35.3054 22.1544 36.4547 19.9999C35.4682 18.1534 34.2116 16.4645 32.7266 14.9889C29.1844 11.4718 24.9031 9.68739 20 9.68739C18.9694 9.68616 17.9404 9.76977 16.9235 9.93739C16.801 9.96047 16.6752 9.95891 16.5534 9.9328C16.4315 9.90669 16.3161 9.85656 16.2139 9.78534C16.1116 9.71411 16.0246 9.62322 15.9579 9.51797C15.8912 9.41273 15.8462 9.29525 15.8254 9.17239C15.8046 9.04953 15.8086 8.92377 15.837 8.80245C15.8654 8.68112 15.9177 8.56668 15.9908 8.46581C16.0639 8.36493 16.1565 8.27965 16.2629 8.21494C16.3694 8.15023 16.4877 8.1074 16.611 8.08895C17.731 7.90301 18.8646 7.8105 20 7.81239C26.7781 7.81239 31.4063 11.0218 34.1 13.7124C37.0031 16.6155 38.3031 19.4936 38.3563 19.6202C38.4097 19.7402 38.4373 19.8701 38.4373 20.0014C38.4373 20.1328 38.4097 20.2627 38.3563 20.3827Z" fill="black"/>
</svg>